<svg width="400" height="400" xmlns="http://www.w3.org/2000/svg" preserveAspectRatio="xMidYMid meet" version="1.0">

 <g>
  <title>Layer 1</title>
  <path fill="#082f49" stroke-opacity="0" stroke="#ffffff" id="svg_2" d="m49,198.22463l0,198.57536l16.83905,-3.30959c9.05325,-1.93059 77.85799,-15.99635 152.45681,-31.3032l135.79882,-27.99361l0.36213,-135.69316l0.5432,-135.83106l-150.82723,-30.8895c-82.74675,-16.96165 -151.73255,-31.1653 -152.81894,-31.579c-1.81065,-0.4137 -2.35385,39.71507 -2.35385,198.02376zm286.08285,-92.3927l0,27.30411l-65.3645,53.64293c-35.85089,29.6484 -72.42604,59.15891 -80.9361,65.77809l-15.75266,12.13516l81.11716,0l80.9361,0l0,26.89041l0,26.89041l-133.08285,0l-133.08285,0l0.18107,-27.30411l0,-27.16621l74.59882,-59.43471c41.10178,-32.82009 78.76332,-62.1927 84.01421,-65.50229c5.06982,-3.30959 9.41539,-6.34338 9.41539,-6.75708c0.18107,-0.4137 -36.39408,-0.5516 -81.29823,-0.2758l-81.47929,0.4137l0,-27.02831l0,-26.89041l130.36687,0l130.36687,0l0,27.30411z"/>
 </g>
</svg>